<svg t="1630600283594" class="icon" viewBox="0 0 1343 1024" version="1.1" xmlns="http://www.w3.org/2000/svg" p-id="21068" width="400" height="400"><path d="M829.025665 0c282.949549 0 512 229.050451 512 512s-229.050451 512-512 512c-70.537618 0-139.488925-14.264971-203.687214-42.007676 55.343353-61.587977 95.36222-138.506358 105.714682-226.23889l0.491283-4.397873 85.589827 7.93156c25.700624 3.107514 38.391121-12.903584 29.062659-36.757456l-110.686705-270.762174c-10.121618-23.338913-30.921249-26.061688-46.671908-6.670797l-0.887861 1.124624-194.181179 240.142798c-15.567168 20.243237-8.197919 39.716994 16.845687 43.404578l1.385064 0.18941 114.924763 8.718798c-7.931561 73.704324-35.668347 140.282081-85.601665 190.215399-59.439353 60.232509-140.282081 93.521387-224.297433 93.521387-82.75459 0-162.437179-32.300393-221.622012-90.088324l-2.675422-2.639907C33.288879 871.033341 0 790.190613 0 706.181179c0-91.804855 38.97711-174.470659 101.293133-232.353295A262.108486 262.108486 0 0 0 251.560694 520.878613C397.033803 520.878613 514.959538 402.952879 514.959538 257.479769c0-44.783723-11.175214-86.951214-30.891654-123.886243C574.937526 50.548902 695.93526 0 829.031584 0zM33.649942 189.410405l211.654289 79.729942 216.715098-66.767168c27.867006 79.510936 4.096 167.385526-60.244346 224.605226-92.100809 81.955514-236.135584 76.788162-322.376509-10.198567C19.059422 355.973179 1.373225 267.39422 33.649942 189.410405zM130.219653 57.959584C223.800231 2.124948 346.265896 15.377757 423.10141 91.242543A213.151815 213.151815 0 0 1 473.526012 170.161572L256.118382 236.763006zM86.477688 41.433526L213.086705 224.924855 0 143.987422c12.530682-30.329341 31.015954-57.184185 55.544601-79.209064A230.038936 230.038936 0 0 1 86.471769 41.433526z" p-id="21069"></path></svg>