<svg t="1632493368208" class="icon" viewBox="0 0 1024 1024" version="1.1" xmlns="http://www.w3.org/2000/svg" p-id="3367" width="400" height="400"><path d="M952.96 0H71.04A39.104 39.104 0 0 0 32 39.04v945.92A39.104 39.104 0 0 0 71.04 1024h881.92A39.104 39.104 0 0 0 992 984.96V39.04A39.104 39.104 0 0 0 952.96 0zM928 960H96V64h832z" p-id="3368"></path><path d="M240 605.888h544v64h-544zM240 782.368h448v64h-448zM268.288 463.2a31.872 31.872 0 0 0 23.232-9.984l136.384-143.68 158.944 106.688a32 32 0 0 0 42.336-6.016l151.04-180a32 32 0 1 0-49.056-41.152l-132.544 157.984-157.504-105.696a32 32 0 0 0-41.024 4.544l-155.008 163.264a32 32 0 0 0 23.2 54.048z" p-id="3369"></path></svg>