<svg t="1630600327841" class="icon" viewBox="0 0 1024 1024" version="1.1" xmlns="http://www.w3.org/2000/svg" p-id="21854" width="400" height="400"><path d="M485.632 42.666667c16.512 1.365333 29.994667 3.242667 40.405333 5.589333 10.410667 2.389333 18.816 5.290667 25.301334 8.661333 6.442667 3.413333 12.032 7.466667 16.682666 12.202667 4.693333 4.778667 9.514667 9.514667 14.506667 14.250667h20.48c6.485333 0 12.757333 0.853333 18.858667 2.56 6.101333 1.706667 12.202667 4.906667 18.304 9.685333 6.101333 4.736 12.714667 11.52 19.925333 20.352 16.512 20.352 28.714667 42.581333 36.608 66.688 7.893333 24.106667 13.653333 47.018667 17.194667 68.693333 3.626667 25.173333 5.76 49.92 6.485333 74.325334 1.450667 3.413333 2.517333 7.466667 3.242667 12.245333a136.405333 136.405333 0 0 1 0 42.752 138.453333 138.453333 0 0 1-6.485334 32.085333 56.576 56.576 0 0 1-9.685333 17.792 32.554667 32.554667 0 0 1-11.861333 10.197334 244.224 244.224 0 0 1-9.685334 29.525333c-3.584 8.106667-7.338667 16.085333-11.306666 23.893333a47.530667 47.530667 0 0 1-14.506667 17.834667c-12.202667 9.514667-22.272 17.493333-30.165333 23.893333-7.893333 6.485333-13.269333 17.493333-16.128 33.109334-2.133333 9.514667-2.901333 19.029333-2.133334 28.501333 0.682667 9.514667 3.370667 19.2 8.021334 29.013333 3.114667 6.613333 7.552 12.928 13.226666 19.072A212.778667 212.778667 0 0 0 554.666667 810.666667c0 62.122667 26.581333 118.058667 68.949333 157.056l8.106667 7.082666-25.6 2.048a1750.186667 1750.186667 0 0 1-120.490667 4.48c-19.370667 0-41.813333-0.682667-67.285333-2.048a3537.493333 3537.493333 0 0 1-78.592-5.077333 3054.378667 3054.378667 0 0 1-80.213334-7.125333 1420.245333 1420.245333 0 0 1-128.682666-18.816c-15.445333-3.072-24.96-6.314667-28.544-9.685334-6.442667-4.778667-11.477333-19.84-15.061334-45.312-3.584-25.472-2.133333-58.538667 4.309334-99.242666 3.584-23.082667 13.44-40.746667 29.610666-52.949334a195.2 195.2 0 0 1 55.978667-29.013333 723.328 723.328 0 0 1 66.773333-18.858667 196.949333 196.949333 0 0 0 60.842667-24.405333c13.653333-8.149333 24.234667-15.957333 31.744-23.466667 7.552-7.424 12.928-14.933333 16.170667-22.357333 3.2-7.466667 4.821333-15.274667 4.821333-23.424 0-8.106667-0.341333-17.322667-1.066667-27.477333-1.450667-14.933333-6.656-26.453333-15.616-34.602667-8.96-8.149333-18.816-16.64-29.610666-25.472a47.530667 47.530667 0 0 1-14.506667-17.834667c-3.968-7.808-7.722667-15.786667-11.306667-23.893333a244.224 244.224 0 0 1-9.728-29.525333 97.792 97.792 0 0 1-6.442666-7.125334 157.653333 157.653333 0 0 1-17.237334-38.698666 157.013333 157.013333 0 0 1-6.997333-29.013334 62.293333 62.293333 0 0 1 0.554667-21.888 51.626667 51.626667 0 0 1 5.376-19.328c0-23.765333 1.450667-47.530667 4.266666-71.253333 2.901333-19.712 7.594667-41.088 14.037334-64.170667 6.442667-23.04 16.853333-43.776 31.232-62.122666 12.928-16.938667 26.88-31.018667 41.984-42.24 15.061333-11.178667 30.72-19.84 46.848-25.941334a231.296 231.296 0 0 1 48.981333-12.714666A332.970667 332.970667 0 0 1 485.632 42.666667zM768 640c10.069333 0 19.925333 0.853333 29.525333 2.56l14.336 32.042667a30.933333 30.933333 0 0 0 35.84 17.536l33.493334-8.533334c14.848 13.397333 27.306667 29.269333 36.821333 46.933334l-15.658667 31.402666a32 32 0 0 0 8.874667 39.466667l27.434667 21.333333a175.616 175.616 0 0 1-13.098667 58.581334l-33.877333 7.125333a31.488 31.488 0 0 0-24.746667 31.616l0.682667 35.157333A168.96 168.96 0 0 1 814.506667 981.333333l-26.581334-22.528a30.634667 30.634667 0 0 0-39.765333 0l-26.581333 22.528a168.96 168.96 0 0 1-53.162667-26.112l0.725333-35.157333a31.488 31.488 0 0 0-24.789333-31.573333l-33.877333-7.168c-7.68-18.602667-12.117333-38.4-13.098667-58.581334l27.434667-21.333333a32 32 0 0 0 8.874666-39.466667l-15.658666-31.36c9.514667-17.706667 21.973333-33.578667 36.821333-46.933333l33.536 8.533333a30.933333 30.933333 0 0 0 35.797333-17.578666l14.336-32c9.770667-1.706667 19.626667-2.602667 29.525334-2.602667z m-257.578667 64.426667h-49.536a90.88 90.88 0 0 0-11.861333 13.226666c-2.858667 3.413333-5.205333 7.125333-6.997333 11.178667a11.264 11.264 0 0 0 0.554666 11.221333c5.034667 9.514667 9.344 17.792 12.928 24.96 3.584 7.125333 7.509333 12.714667 11.818667 16.768-1.408 6.101333-3.584 14.762667-6.442667 25.984a836.010667 836.010667 0 0 0-14.506666 68.181334 155.093333 155.093333 0 0 0-2.730667 23.936c0 3.413333 1.621333 7.466667 4.864 12.202666 3.2 4.778667 6.997333 9.685333 11.306667 14.762667 4.266667 5.12 8.789333 9.386667 13.44 12.757333 4.693333 3.413333 8.789333 5.077333 12.373333 5.077334 3.626667 0 7.936-1.706667 12.928-5.12 5.034667-3.370667 9.898667-7.253333 14.549333-11.690667a74.666667 74.666667 0 0 0 11.861334-14.250667c3.2-5.12 4.821333-9.301333 4.821333-12.714666 0-4.053333-1.066667-11.050667-3.242667-20.906667-2.133333-9.813333-4.48-20.821333-6.997333-33.066667a889.813333 889.813333 0 0 0-8.064-35.626666c-2.858667-11.52-5.376-20.693333-7.552-27.477334 4.309333-3.413333 8.448-8.32 12.373333-14.762666 3.968-6.442667 8.832-15.104 14.549334-25.984a14.421333 14.421333 0 0 0 0.554666-12.714667 44.885333 44.885333 0 0 0-8.106666-12.714667 205.525333 205.525333 0 0 0-12.885334-13.226666z m257.578667 38.357333c-38.613333 0-69.888 31.829333-69.888 71.125333s31.274667 71.168 69.888 71.168c38.613333 0 69.888-31.872 69.888-71.168 0-39.253333-31.274667-71.125333-69.888-71.125333z" p-id="21855"></path></svg>