<svg t="1631451773958" class="icon" viewBox="0 0 1024 1024" version="1.1" xmlns="http://www.w3.org/2000/svg" p-id="2420" width="200" height="200"><path d="M892.16 480h-66.944a80 80 0 1 1-146.432 0H544v-67.84a143.68 143.68 0 0 0 0-280.32V0H0v1024h1024V480zM64 64h416v134.784a80 80 0 1 1 0 146.432V480h-67.936a143.84 143.84 0 0 0-280.128 0H64z m416 896H64V544h134.976a76.8 76.8 0 0 1 0-64 80.16 80.16 0 0 1 146.048 0 76.8 76.8 0 0 1 0 64H480v67.84a143.68 143.68 0 0 0 0 280.32z m480 0H544v-134.784a80 80 0 1 1 0-146.432V544h67.84a143.68 143.68 0 0 0 280.32 0H960z" p-id="2421"></path></svg>