<svg t="1632883349861" class="icon" viewBox="0 0 1024 1024" version="1.1" xmlns="http://www.w3.org/2000/svg" p-id="2785" width="200" height="200"><path d="M477.323494 211.560728v375.958645a31.99648 31.99648 0 0 0 63.992961 0V211.560728a31.99648 31.99648 0 1 0-63.992961 0z"  p-id="2786"></path><path d="M839.107698 716.689164a31.99648 31.99648 0 0 0-31.99648-31.99648H193.578706c-0.287968 0-0.511944 0.127986-0.799912 0.159982-0.255972 0-0.479947-0.159982-0.767915-0.159982a127.985922 127.985922 0 1 1 127.985921-127.985922 129.521753 129.521753 0 0 1-1.983781 22.717501 31.99648 31.99648 0 1 0 62.969073 11.198768A194.122647 194.122647 0 0 0 383.957765 556.738759a191.978882 191.978882 0 1 0-191.978883 191.978882c0.287968 0 0.511944-0.159982 0.767916-0.159982 0.287968 0 0.511944 0.159982 0.799912 0.159982h613.564508a31.99648 31.99648 0 0 0 31.99648-31.99648zM289.568148 812.934577a33.27634 33.27634 0 0 0-31.996481 34.46021v142.064372a32.09247 32.09247 0 1 0 63.992961 0v-142.064372a33.27634 33.27634 0 0 0-31.99648-34.46021zM509.319975 812.934577a33.27634 33.27634 0 0 0-31.996481 34.46021v142.064372a32.09247 32.09247 0 1 0 63.992961 0v-142.064372a33.27634 33.27634 0 0 0-31.99648-34.46021z"  p-id="2787"></path><path d="M1014.736379 681.045085l-166.253712-166.253712a31.99648 31.99648 0 0 0-45.243023 45.243023l144.944056 144.944056-144.944056 144.944057a31.99648 31.99648 0 1 0 45.243023 45.275019l166.253712-166.253712a36.028037 36.028037 0 0 0 0-47.898731zM341.722411 230.054694a31.900491 31.900491 0 0 0 22.621511-9.406965l144.944056-144.944056 144.944056 144.944056a31.99648 31.99648 0 0 0 45.27502-45.243024L533.253342 9.150993a36.028037 36.028037 0 0 0-47.898731 0L319.100899 175.404705a31.99648 31.99648 0 0 0 22.621512 54.617993z" p-id="2788"></path></svg>