<?xml version="1.0" standalone="no"?><!DOCTYPE svg PUBLIC "-//W3C//DTD SVG 1.1//EN" "http://www.w3.org/Graphics/SVG/1.1/DTD/svg11.dtd"><svg t="1630599644897" class="icon" viewBox="0 0 1077 1024" version="1.1" xmlns="http://www.w3.org/2000/svg" p-id="4417" width="420.703125" height="400" xmlns:xlink="http://www.w3.org/1999/xlink"><defs><style type="text/css"></style></defs><path d="M864.471579 716.8v296.421053h-296.421053v-68.176842a115.765895 115.765895 0 0 0-115.60421-115.604211c-65.212632 0-115.604211 50.391579-115.604211 115.604211V1013.221053H40.421053v-296.421053h68.176842a115.765895 115.765895 0 0 0 115.60421-115.604211c0-65.212632-50.391579-115.604211-115.60421-115.60421H40.421053v-296.421053h296.421052V120.993684C336.842105 55.781053 390.197895 5.389474 452.446316 5.389474s115.604211 50.391579 115.60421 115.60421V189.170526h296.421053v296.421053h68.176842c62.248421 0 115.604211 50.391579 115.604211 115.60421s-50.391579 115.604211-115.604211 115.604211H864.471579z" p-id="4418"></path></svg>