<svg t="1631452460099" class="icon" viewBox="0 0 1024 1024" version="1.1" xmlns="http://www.w3.org/2000/svg" p-id="3524" width="200" height="200"><path d="M984.32 672H880v-153.056a31.552 31.552 0 0 0-3.072-13.28 31.552 31.552 0 0 0-30.4-24.096H544V352h104.32a39.712 39.712 0 0 0 39.68-39.68V39.68A39.712 39.712 0 0 0 648.32 0h-272.64a39.712 39.712 0 0 0-39.68 39.68v272.64A39.712 39.712 0 0 0 375.68 352H480v129.568H177.024a32 32 0 0 0-32 32l0.032 0.128a30.432 30.432 0 0 0-1.056 5.248V672H39.68A39.712 39.712 0 0 0 0 711.68v272.64A39.712 39.712 0 0 0 39.68 1024h272.64A39.712 39.712 0 0 0 352 984.32v-272.64A39.712 39.712 0 0 0 312.32 672H208v-126.432h608V672h-104.32A39.712 39.712 0 0 0 672 711.68v272.64A39.712 39.712 0 0 0 711.68 1024h272.64A39.712 39.712 0 0 0 1024 984.32v-272.64A39.712 39.712 0 0 0 984.32 672zM400 64h224v224h-224zM288 960H64v-224h224z m672 0h-224v-224h224z" p-id="3525"></path></svg>