<svg t="1635607231947" class="icon" viewBox="0 0 1024 1024" version="1.1" xmlns="http://www.w3.org/2000/svg" p-id="18621" width="400" height="400"><path d="M856 128H168a40 40 0 0 0-40 40v688a40 40 0 0 0 40 40h688a40 40 0 0 0 40-40V168a40 40 0 0 0-40-40zM272 332a4 4 0 0 1 4-4h296a4 4 0 0 1 4 4v56a4 4 0 0 1-4 4H276a4 4 0 0 1-4-4z m176 360a4 4 0 0 1-4 4H276a4 4 0 0 1-4-4v-56a4 4 0 0 1 4-4h168a4 4 0 0 1 4 4z m0-152a4 4 0 0 1-4 4H276a4 4 0 0 1-4-4v-56a4 4 0 0 1 4-4h168a4 4 0 0 1 4 4z m318.9-10.5l-39.6 39.6a3.9 3.9 0 0 1-5.6 0L666 513.4V692a4 4 0 0 1-4 4h-56a4 4 0 0 1-4-4V513.4l-55.7 55.7a3.9 3.9 0 0 1-5.6 0l-39.6-39.6a3.9 3.9 0 0 1 0-5.6l90.5-90.6 39.6-39.6a4 4 0 0 1 5.6 0l39.6 39.6 90.5 90.6a3.9 3.9 0 0 1 0 5.6z" p-id="18622"></path></svg>