<?xml version="1.0" standalone="no"?><!DOCTYPE svg PUBLIC "-//W3C//DTD SVG 1.1//EN" "http://www.w3.org/Graphics/SVG/1.1/DTD/svg11.dtd"><svg t="1630599937673" class="icon" viewBox="0 0 1024 1024" version="1.1" xmlns="http://www.w3.org/2000/svg" p-id="8082" xmlns:xlink="http://www.w3.org/1999/xlink" width="400" height="400"><defs><style type="text/css"></style></defs><path d="M782.611692 416.925538V153.6L519.325538 0 248.674462 153.6v263.325538L0 563.2v307.2L263.325538 1024 512 877.725538 760.674462 1024 1024 870.4v-307.2l-241.388308-146.274462z m-256-336.462769l197.513846 117.011693v226.73723l-182.862769 102.4V285.262769L358.4 175.537231l168.211692-95.074462z m-58.486154 746.062769L270.572308 943.537231V702.227692L87.827692 592.462769l182.823385-109.725538 197.513846 117.051077v226.73723z m490.06277 0l-175.576616 102.4-7.286154-241.388307-190.188307-102.4 175.537231-102.4 197.513846 117.051077v226.73723z" p-id="8083"></path></svg>