<svg t="1631452485499" class="icon" viewBox="0 0 1024 1024" version="1.1" xmlns="http://www.w3.org/2000/svg" p-id="3660" width="200" height="200"><path d="M996.138521 548.999682l-214.363378-124.157323V176.079723a47.166983 47.166983 0 0 0-23.455494-40.703122L535.572452 6.323384a47.198982 47.198982 0 0 0-47.166983 0l-222.715198 129.085216a47.134984 47.134984 0 0 0-23.487493 40.703123v248.698637L27.8394 548.999682a47.134984 47.134984 0 0 0-23.487494 40.703123v258.202432a47.166983 47.166983 0 0 0 23.455494 40.703122l222.747197 129.053218a47.102984 47.102984 0 0 0 47.198983 0L511.98896 893.536253l214.203381 124.125324a47.102984 47.102984 0 0 0 47.166983 0l222.747197-129.053218a47.134984 47.134984 0 0 0 23.487494-40.703122v-258.234432a47.166983 47.166983 0 0 0-23.455494-40.671123z m-247.578662 133.437123l-173.020269-101.245817 174.236243-100.957823 173.020269 100.253838z m-269.786183-358.136278v200.219683l-172.572278-99.965844v-201.27566z m239.034846 100.253839l-175.036226 101.373814v-201.627653l175.036226-102.429791z m-443.638434 55.678799l173.052269 100.253838-174.236243 101.981801-173.052269-101.277816z m30.815336 257.658444L479.98965 635.429819v202.715628L304.953424 939.519262zM511.98896 66.642083l173.020269 100.253838-174.236243 101.981801-173.020269-101.277816zM68.382526 636.869787l172.604278 101.021822v200.219683l-172.604278-99.965845z m475.605744 0l172.572279 101.021822v200.219683L543.98827 838.145447z m236.570899 302.681474v-201.659652l175.036226-102.46179v202.715628z" p-id="3661"></path></svg>