<svg t="1632455418028" class="icon" viewBox="0 0 1024 1024" version="1.1" xmlns="http://www.w3.org/2000/svg" p-id="3068" width="200" height="200"><path d="M525.34432 534.4a242.784 242.784 0 1 0-265.984-0.352A395.904 395.904 0 0 0 0.00032 906.08a32 32 0 1 0 64 0 330.016 330.016 0 0 1 327.872-331.424A330.016 330.016 0 0 1 719.68032 906.08a32 32 0 1 0 64 0A395.936 395.936 0 0 0 525.34432 534.4z m-311.52-204.352a178.816 178.816 0 1 1 178.816 179.904 179.584 179.584 0 0 1-178.816-179.904z" p-id="3069"></path><path d="M795.84032 531.232a222.72 222.72 0 0 0-126.208-405.216 32.192 32.192 0 0 0 0 64.384 158.24 158.24 0 0 1 0 316.48 31.584 31.584 0 0 0-12.704 2.688 32.16 32.16 0 0 0 12 61.952A293.024 293.024 0 0 1 960.00032 865.792a32 32 0 1 0 64 0 358.816 358.816 0 0 0-228.16-334.56z" p-id="3070"></path></svg>