<svg t="1631452636951" class="icon" viewBox="0 0 1024 1024" version="1.1" xmlns="http://www.w3.org/2000/svg" p-id="1087" width="200" height="200"><path d="M510.329453 239.311411c-106.959034 0-193.984063 86.993307-193.984063 193.990203 0 106.952894 87.024006 193.96462 193.984063 193.96462 106.955964 0 193.980993-87.011726 193.980993-193.96462C704.310446 326.303694 617.285416 239.311411 510.329453 239.311411zM510.329453 601.841168c-93.080955 0-168.558997-75.458599-168.558997-168.540577 0-93.074815 75.478042-168.527275 168.558997-168.527275 93.084025 0 168.530344 75.452459 168.530344 168.527275C678.859797 526.382569 603.413478 601.841168 510.329453 601.841168z" p-id="1088"></path><path d="M717.327924 787.735995c-12.024871-6.859221-25.054629-12.916171-38.647205-18.380626 3.247974-1.77646 5.808286-3.50994 7.769964-5.190209 116.118648-62.287625 195.117886-184.818309 195.117886-325.81967 0-204.13526-165.451216-369.580337-369.563964-369.580337-204.116841 0-369.574197 165.444053-369.574197 369.580337 0 141.001361 78.986959 263.506463 195.09128 325.81967 1.967818 1.681292 4.535293 3.413749 7.782244 5.190209-13.603833 5.464455-26.602891 11.521404-38.60832 18.380626-55.269791 31.571043-85.71315 73.643254-85.71315 118.40369 0 24.246217 33.844829 43.945885 75.573209 43.945885 41.754986 0 75.598792-19.699668 75.598792-43.945885 0-43.652196 62.753229-79.126128 139.848095-79.126128 77.117378 0 139.826606 35.473933 139.826606 79.126128 0 24.246217 33.857109 43.945885 75.623351 43.945885 41.72838 0 75.574233-19.699668 75.574233-43.945885C803.027771 861.379249 772.584412 819.307038 717.327924 787.735995zM512.004605 690.769546c-139.204435 0-252.456802-113.258507-252.456802-252.42508 0-139.198296 113.251344-252.456802 252.456802-252.456802 139.189086 0 252.440429 113.258507 252.440429 252.456802C764.445034 577.512063 651.192667 690.769546 512.004605 690.769546z" p-id="1089"></path></svg>