<svg t="1633763051228" class="icon" viewBox="0 0 1024 1024" version="1.1" xmlns="http://www.w3.org/2000/svg" p-id="21246" width="200" height="200"><path d="M166 583.7a372.9 372.9 0 0 1 93.1-156.4c98.8-99.7 239.7-132.2 366.1-97.6l-17.5 32.1a4 4 0 0 0 3.9 5.9l259.8-21.3a4.1 4.1 0 0 0 3.2-5.9L751.1 110.9a4.1 4.1 0 0 0-7.1 0l-25.4 46.9C573.7 70.3 382.7 89.5 258.2 215c-99.3 100.1-130.6 242.1-94.1 368.7a1 1 0 0 0 1.9 0z m692-143.4a372.9 372.9 0 0 1-93.1 156.4c-98.8 99.7-239.7 132.2-366.1 97.6l17.5-32.1a4 4 0 0 0-3.9-5.9l-259.8 21.3a4.1 4.1 0 0 0-3.2 5.9l123.5 229.6a4.1 4.1 0 0 0 7.1 0l25.4-46.9c144.9 87.5 335.9 68.3 460.4-57.2 99.3-100.1 130.6-242.1 94.1-368.7a1 1 0 0 0-1.9 0z" p-id="21247"></path></svg>