<svg t="1631452063577" class="icon" viewBox="0 0 1024 1024" version="1.1" xmlns="http://www.w3.org/2000/svg" p-id="2974" width="200" height="200"><path d="M985.376 0H38.624A38.656 38.656 0 0 0 0 38.624v946.752A38.656 38.656 0 0 0 38.624 1024h946.752A38.656 38.656 0 0 0 1024 985.376V38.624A38.656 38.656 0 0 0 985.376 0zM960 960H64V64h896z" p-id="2975"></path><path d="M298.208 800.704V864h64v-63.296a160 160 0 0 0 0-313.504V160h-64v327.2a160 160 0 0 0 0 313.504z m0-246.848a89.76 89.76 0 0 1 64 0 95.424 95.424 0 0 1 0 180.192 89.76 89.76 0 0 1-64 0 95.424 95.424 0 0 1 0-180.192zM661.792 536.832V864h64V536.832a160 160 0 0 0 0-313.536V160h-64v63.296a160 160 0 0 0 0 313.536z m0-246.88a89.76 89.76 0 0 1 64 0 95.424 95.424 0 0 1 0 180.224 89.76 89.76 0 0 1-64 0 95.424 95.424 0 0 1 0-180.224z" p-id="2976"></path></svg>