<svg t="1632455476044" class="icon" viewBox="0 0 1024 1024" version="1.1" xmlns="http://www.w3.org/2000/svg" p-id="3210" width="200" height="200"><path d="M1014.622115 9.375965a31.99988 31.99988 0 0 0-45.24783 0L607.327643 371.422607a31.99988 31.99988 0 1 0 45.27983 45.24783L1014.622115 54.623795a31.99988 31.99988 0 0 0 0-45.24783zM195.713186 256.991036h319.9988v63.99976h-319.9988zM195.713186 703.037364h479.9982v63.99976h-479.9982zM195.713186 479.9982h255.99904v63.99976h-255.99904z" p-id="3211"></path><path d="M895.99856 959.9964H64.00168V63.99976h648.349569V0H38.881774A38.911854 38.911854 0 0 0 0.00192 38.847854v946.300452A38.911854 38.911854 0 0 0 38.881774 1023.99616h882.236692A38.911854 38.911854 0 0 0 959.99832 985.148306V336.12674h-63.99976z" p-id="3212"></path></svg>