<svg t="1635148399215" class="icon" viewBox="0 0 1024 1024" version="1.1" xmlns="http://www.w3.org/2000/svg" p-id="18627" width="200" height="200"><path d="M509 416a64 64 0 1 0-64-64 64.1 64.1 0 0 0 64 64zM808 64H216a40 40 0 0 0-40 40v748a108.1 108.1 0 0 0 108 108h456a108.1 108.1 0 0 0 108-108V104a40 40 0 0 0-40-40zM322 606c0-70.1 38.5-131.7 95.4-164.6a128.1 128.1 0 1 1 185.2-2.2A192.5 192.5 0 0 1 702 607.7V652a4 4 0 0 1-4 4h-56a4 4 0 0 1-4-4v-46a126 126 0 0 0-252 0v46a4 4 0 0 1-4 4h-56a4 4 0 0 1-4-4z m417.3 282H284.7c-19.7 0-36.2-15.5-36.7-35.1a36.1 36.1 0 0 1 36-36.9h456a36.1 36.1 0 0 1 36 36.9c-0.5 19.6-17 35.1-36.7 35.1z" p-id="18628"></path></svg>